# xmcd CD database file
#
# Track frame offsets:
#	151
#	24564
#	40033
#	57715
#	75735
#	95905
#	116002
#	140460
#	162662
#	188615
#	214258
#
# Disc length: 3135 seconds
#
# Revision: 0
# Processed by: cddbd v1.5.2PL0 Copyright (c) Steve Scherf et al.
# Submitted via: CDex 1.51
#
DISCID=9f0c3d0b
DTITLE=Various Artists Salsa - la Habana de Noce II [CD1]
DYEAR=2006
DGENRE=Salsa
TTITLE0=Ay, Ay Amor!
TTITLE1=Pa'mi no hay Café
TTITLE2=Con tu mala maña
TTITLE3=El Patatum
TTITLE4=Me siento libre
TTITLE5=Erez la paz
TTITLE6=Raices
TTITLE7=Que fue de aquellos dos amantes
TTITLE8=Comunicate
TTITLE9=La Borracera
TTITLE10=El Cucurucho
EXTD=YEAR: 2006
EXTT0=
EXTT1=
EXTT2=
EXTT3=
EXTT4=
EXTT5=
EXTT6=
EXTT7=
EXTT8=
EXTT9=
EXTT10=
PLAYORDER=
